<svg width="461" height="128" viewBox="0 0 461 128" fill="none" xmlns="http://www.w3.org/2000/svg">
<path d="M24.7845 73.7479C24.7845 80.401 10 80.401 10 73.7479V5C18.8707 5 24.7845 16.0884 49.9182 16.0884C75.0518 16.0884 79.4872 4.99971 88.3579 5V73.7479C88.3579 80.401 73.5734 80.401 73.5734 73.7479V33.8298C73.5734 20.5237 58.7889 20.5237 58.7889 33.8298V73.7479C58.7889 80.401 39.569 80.401 39.569 73.7479V33.8298C39.569 20.5237 24.7845 20.5237 24.7845 33.8298V73.7479Z" fill="#28292C"/>
<path d="M73.5732 101.099V42.7006C73.5732 34.5692 88.3577 34.5694 88.3577 42.7006V101.099C88.3577 130.669 39.5689 129.929 39.5688 101.099L39.5689 78.3582C39.5676 78.3004 39.5676 78.2421 39.5689 78.1834L39.5689 78.3582C39.7224 85.4819 58.6811 86.113 58.7887 78.1834V101.099C58.7887 108.492 73.5732 108.492 73.5732 101.099Z" fill="#00C5D2"/>
<path d="M142.918 81.5L142.87 61.34L132.982 77.948H129.478L119.638 61.772V81.5H112.342V47.9H118.774L131.35 68.78L143.734 47.9H150.118L150.214 81.5H142.918ZM168.074 55.292C172.074 55.292 175.146 56.252 177.29 58.172C179.434 60.06 180.506 62.924 180.506 66.764V81.5H173.498V78.284C172.09 80.684 169.466 81.884 165.626 81.884C163.642 81.884 161.914 81.548 160.442 80.876C159.002 80.204 157.898 79.276 157.13 78.092C156.362 76.908 155.978 75.564 155.978 74.06C155.978 71.66 156.874 69.772 158.666 68.396C160.49 67.02 163.29 66.332 167.066 66.332H173.018C173.018 64.7 172.522 63.452 171.53 62.588C170.538 61.692 169.05 61.244 167.066 61.244C165.69 61.244 164.33 61.468 162.986 61.916C161.674 62.332 160.554 62.908 159.626 63.644L156.938 58.412C158.346 57.42 160.026 56.652 161.978 56.108C163.962 55.564 165.994 55.292 168.074 55.292ZM167.498 76.844C168.778 76.844 169.914 76.556 170.906 75.98C171.898 75.372 172.602 74.492 173.018 73.34V70.7H167.882C164.81 70.7 163.274 71.708 163.274 73.724C163.274 74.684 163.642 75.452 164.378 76.028C165.146 76.572 166.186 76.844 167.498 76.844ZM212.446 55.676L200.782 83.084C199.598 86.06 198.126 88.156 196.366 89.372C194.638 90.588 192.542 91.196 190.078 91.196C188.734 91.196 187.406 90.988 186.094 90.572C184.782 90.156 183.71 89.58 182.878 88.844L185.614 83.516C186.19 84.028 186.846 84.428 187.582 84.716C188.35 85.004 189.102 85.148 189.838 85.148C190.862 85.148 191.694 84.892 192.334 84.38C192.974 83.9 193.55 83.084 194.062 81.932L194.158 81.692L182.974 55.676H190.702L197.95 73.196L205.246 55.676H212.446ZM227.278 81.884C224.526 81.884 222.046 81.324 219.838 80.204C217.662 79.052 215.95 77.468 214.702 75.452C213.486 73.436 212.878 71.148 212.878 68.588C212.878 66.028 213.486 63.74 214.702 61.724C215.95 59.708 217.662 58.14 219.838 57.02C222.046 55.868 224.526 55.292 227.278 55.292C229.998 55.292 232.366 55.868 234.382 57.02C236.43 58.14 237.918 59.756 238.846 61.868L233.038 64.988C231.694 62.62 229.758 61.436 227.23 61.436C225.278 61.436 223.662 62.076 222.382 63.356C221.102 64.636 220.462 66.38 220.462 68.588C220.462 70.796 221.102 72.54 222.382 73.82C223.662 75.1 225.278 75.74 227.23 75.74C229.79 75.74 231.726 74.556 233.038 72.188L238.846 75.356C237.918 77.404 236.43 79.004 234.382 80.156C232.366 81.308 229.998 81.884 227.278 81.884ZM255.117 81.884C252.397 81.884 249.949 81.324 247.773 80.204C245.629 79.052 243.949 77.468 242.733 75.452C241.517 73.436 240.909 71.148 240.909 68.588C240.909 66.028 241.517 63.74 242.733 61.724C243.949 59.708 245.629 58.14 247.773 57.02C249.949 55.868 252.397 55.292 255.117 55.292C257.837 55.292 260.269 55.868 262.413 57.02C264.557 58.14 266.237 59.708 267.453 61.724C268.669 63.74 269.277 66.028 269.277 68.588C269.277 71.148 268.669 73.436 267.453 75.452C266.237 77.468 264.557 79.052 262.413 80.204C260.269 81.324 257.837 81.884 255.117 81.884ZM255.117 75.74C257.037 75.74 258.605 75.1 259.821 73.82C261.069 72.508 261.693 70.764 261.693 68.588C261.693 66.412 261.069 64.684 259.821 63.404C258.605 62.092 257.037 61.436 255.117 61.436C253.197 61.436 251.613 62.092 250.365 63.404C249.117 64.684 248.493 66.412 248.493 68.588C248.493 70.764 249.117 72.508 250.365 73.82C251.613 75.1 253.197 75.74 255.117 75.74ZM289.979 55.292C293.179 55.292 295.755 56.252 297.707 58.172C299.691 60.092 300.683 62.94 300.683 66.716V81.5H293.195V67.868C293.195 65.82 292.747 64.3 291.851 63.308C290.955 62.284 289.659 61.772 287.963 61.772C286.075 61.772 284.571 62.364 283.451 63.548C282.331 64.7 281.771 66.428 281.771 68.732V81.5H274.283V55.676H281.435V58.7C282.427 57.612 283.659 56.78 285.131 56.204C286.603 55.596 288.219 55.292 289.979 55.292ZM326.68 81.788C324.76 81.788 322.984 81.372 321.352 80.54C319.72 79.708 318.392 78.524 317.368 76.988L319.48 74.588C321.336 77.34 323.752 78.716 326.728 78.716C330.888 78.716 332.968 76.252 332.968 71.324V50.972H320.68V47.9H336.472V71.18C336.472 74.7 335.64 77.356 333.976 79.148C332.344 80.908 329.912 81.788 326.68 81.788ZM368.391 69.932H347.271C347.463 72.556 348.471 74.684 350.295 76.316C352.119 77.916 354.423 78.716 357.207 78.716C358.775 78.716 360.215 78.444 361.527 77.9C362.839 77.324 363.975 76.492 364.935 75.404L366.855 77.612C365.735 78.956 364.327 79.98 362.631 80.684C360.967 81.388 359.127 81.74 357.111 81.74C354.519 81.74 352.215 81.196 350.199 80.108C348.215 78.988 346.663 77.452 345.543 75.5C344.423 73.548 343.863 71.34 343.863 68.876C343.863 66.412 344.391 64.204 345.447 62.252C346.535 60.3 348.007 58.78 349.863 57.692C351.751 56.604 353.863 56.06 356.199 56.06C358.535 56.06 360.631 56.604 362.487 57.692C364.343 58.78 365.799 60.3 366.855 62.252C367.911 64.172 368.439 66.38 368.439 68.876L368.391 69.932ZM356.199 58.988C353.767 58.988 351.719 59.772 350.055 61.34C348.423 62.876 347.495 64.892 347.271 67.388H365.175C364.951 64.892 364.007 62.876 362.343 61.34C360.711 59.772 358.663 58.988 356.199 58.988ZM382.143 81.74C380.095 81.74 378.127 81.452 376.239 80.876C374.383 80.268 372.927 79.516 371.871 78.62L373.407 75.932C374.463 76.764 375.791 77.452 377.391 77.996C378.991 78.508 380.655 78.764 382.383 78.764C384.687 78.764 386.383 78.412 387.471 77.708C388.591 76.972 389.151 75.948 389.151 74.636C389.151 73.708 388.847 72.988 388.239 72.476C387.631 71.932 386.863 71.532 385.935 71.276C385.007 70.988 383.775 70.716 382.239 70.46C380.191 70.076 378.543 69.692 377.295 69.308C376.047 68.892 374.975 68.204 374.079 67.244C373.215 66.284 372.783 64.956 372.783 63.26C372.783 61.148 373.663 59.42 375.423 58.076C377.183 56.732 379.631 56.06 382.767 56.06C384.399 56.06 386.031 56.284 387.663 56.732C389.295 57.148 390.639 57.708 391.695 58.412L390.207 61.148C388.127 59.708 385.647 58.988 382.767 58.988C380.591 58.988 378.943 59.372 377.823 60.14C376.735 60.908 376.191 61.916 376.191 63.164C376.191 64.124 376.495 64.892 377.103 65.468C377.743 66.044 378.527 66.476 379.455 66.764C380.383 67.02 381.663 67.292 383.295 67.58C385.311 67.964 386.927 68.348 388.143 68.732C389.359 69.116 390.399 69.772 391.263 70.7C392.127 71.628 392.559 72.908 392.559 74.54C392.559 76.748 391.631 78.508 389.775 79.82C387.951 81.1 385.407 81.74 382.143 81.74ZM421.612 56.252V81.5H418.348V76.892C417.452 78.428 416.22 79.628 414.652 80.492C413.084 81.324 411.292 81.74 409.276 81.74C405.98 81.74 403.372 80.828 401.452 79.004C399.564 77.148 398.62 74.444 398.62 70.892V56.252H402.028V70.556C402.028 73.212 402.684 75.228 403.996 76.604C405.308 77.98 407.18 78.668 409.612 78.668C412.268 78.668 414.364 77.868 415.9 76.268C417.436 74.636 418.204 72.38 418.204 69.5V56.252H421.612ZM437.925 81.74C435.877 81.74 433.909 81.452 432.021 80.876C430.165 80.268 428.709 79.516 427.653 78.62L429.189 75.932C430.245 76.764 431.573 77.452 433.173 77.996C434.773 78.508 436.437 78.764 438.165 78.764C440.469 78.764 442.165 78.412 443.253 77.708C444.373 76.972 444.933 75.948 444.933 74.636C444.933 73.708 444.629 72.988 444.021 72.476C443.413 71.932 442.645 71.532 441.717 71.276C440.789 70.988 439.557 70.716 438.021 70.46C435.973 70.076 434.325 69.692 433.077 69.308C431.829 68.892 430.757 68.204 429.861 67.244C428.997 66.284 428.565 64.956 428.565 63.26C428.565 61.148 429.445 59.42 431.205 58.076C432.965 56.732 435.413 56.06 438.549 56.06C440.181 56.06 441.813 56.284 443.445 56.732C445.077 57.148 446.421 57.708 447.477 58.412L445.989 61.148C443.909 59.708 441.429 58.988 438.549 58.988C436.373 58.988 434.725 59.372 433.605 60.14C432.517 60.908 431.973 61.916 431.973 63.164C431.973 64.124 432.277 64.892 432.885 65.468C433.525 66.044 434.309 66.476 435.237 66.764C436.165 67.02 437.445 67.292 439.077 67.58C441.093 67.964 442.709 68.348 443.925 68.732C445.141 69.116 446.181 69.772 447.045 70.7C447.909 71.628 448.341 72.908 448.341 74.54C448.341 76.748 447.413 78.508 445.557 79.82C443.733 81.1 441.189 81.74 437.925 81.74Z" fill="#28292C"/>
</svg>
