<svg width="461" height="128" viewBox="0 0 461 128" fill="none" xmlns="http://www.w3.org/2000/svg">
<path d="M24.7845 73.7479C24.7845 80.401 10 80.401 10 73.7479V5C18.8707 5 24.7845 16.0884 49.9182 16.0884C75.0518 16.0884 79.4872 4.99971 88.3579 5V73.7479C88.3579 80.401 73.5734 80.401 73.5734 73.7479V33.8298C73.5734 20.5237 58.7889 20.5237 58.7889 33.8298V73.7479C58.7889 80.401 39.569 80.401 39.569 73.7479V33.8298C39.569 20.5237 24.7845 20.5237 24.7845 33.8298V73.7479Z" fill="#28292C"/>
<path d="M73.5732 101.099V42.7006C73.5732 34.5692 88.3577 34.5694 88.3577 42.7006V101.099C88.3577 130.669 39.5689 129.929 39.5689 101.099L39.5689 78.3582C39.5676 78.3004 39.5676 78.2421 39.5689 78.1834L39.5689 78.3582C39.7224 85.4819 58.6811 86.113 58.7887 78.1834V101.099C58.7887 108.492 73.5732 108.492 73.5732 101.099Z" fill="#D72323"/>
<path d="M112.342 81.5V47.9H118.774L133.078 71.612H129.67L143.734 47.9H150.118L150.214 81.5H142.918L142.87 59.084H144.214L132.982 77.948H129.478L118.006 59.084H119.638V81.5H112.342ZM173.498 81.5V76.46L173.018 75.356V66.332C173.018 64.732 172.522 63.484 171.53 62.588C170.57 61.692 169.082 61.244 167.066 61.244C165.69 61.244 164.33 61.468 162.986 61.916C161.674 62.332 160.554 62.908 159.626 63.644L156.938 58.412C158.346 57.42 160.042 56.652 162.026 56.108C164.01 55.564 166.026 55.292 168.074 55.292C172.01 55.292 175.066 56.22 177.242 58.076C179.418 59.932 180.506 62.828 180.506 66.764V81.5H173.498ZM165.626 81.884C163.61 81.884 161.882 81.548 160.442 80.876C159.002 80.172 157.898 79.228 157.13 78.044C156.362 76.86 155.978 75.532 155.978 74.06C155.978 72.524 156.346 71.18 157.082 70.028C157.85 68.876 159.05 67.98 160.682 67.34C162.314 66.668 164.442 66.332 167.066 66.332H173.93V70.7H167.882C166.122 70.7 164.906 70.988 164.234 71.564C163.594 72.14 163.274 72.86 163.274 73.724C163.274 74.684 163.642 75.452 164.378 76.028C165.146 76.572 166.186 76.844 167.498 76.844C168.746 76.844 169.866 76.556 170.858 75.98C171.85 75.372 172.57 74.492 173.018 73.34L174.17 76.796C173.626 78.46 172.634 79.724 171.194 80.588C169.754 81.452 167.898 81.884 165.626 81.884ZM190.078 91.196C188.734 91.196 187.406 90.988 186.094 90.572C184.782 90.156 183.71 89.58 182.878 88.844L185.614 83.516C186.19 84.028 186.846 84.428 187.582 84.716C188.35 85.004 189.102 85.148 189.838 85.148C190.894 85.148 191.726 84.892 192.334 84.38C192.974 83.9 193.55 83.084 194.062 81.932L195.406 78.764L195.982 77.948L205.246 55.676H212.446L200.782 83.084C199.95 85.164 198.99 86.796 197.902 87.98C196.846 89.164 195.662 89.996 194.35 90.476C193.07 90.956 191.646 91.196 190.078 91.196ZM194.494 82.508L182.974 55.676H190.702L199.63 77.276L194.494 82.508ZM227.278 81.884C224.494 81.884 222.014 81.324 219.838 80.204C217.662 79.052 215.95 77.468 214.702 75.452C213.486 73.436 212.878 71.148 212.878 68.588C212.878 65.996 213.486 63.708 214.702 61.724C215.95 59.708 217.662 58.14 219.838 57.02C222.014 55.868 224.494 55.292 227.278 55.292C229.998 55.292 232.366 55.868 234.382 57.02C236.398 58.14 237.886 59.756 238.846 61.868L233.038 64.988C232.366 63.772 231.518 62.876 230.494 62.3C229.502 61.724 228.414 61.436 227.23 61.436C225.95 61.436 224.798 61.724 223.774 62.3C222.75 62.876 221.934 63.692 221.326 64.748C220.75 65.804 220.462 67.084 220.462 68.588C220.462 70.092 220.75 71.372 221.326 72.428C221.934 73.484 222.75 74.3 223.774 74.876C224.798 75.452 225.95 75.74 227.23 75.74C228.414 75.74 229.502 75.468 230.494 74.924C231.518 74.348 232.366 73.436 233.038 72.188L238.846 75.356C237.886 77.436 236.398 79.052 234.382 80.204C232.366 81.324 229.998 81.884 227.278 81.884ZM255.117 81.884C252.365 81.884 249.917 81.308 247.773 80.156C245.661 79.004 243.981 77.436 242.733 75.452C241.517 73.436 240.909 71.148 240.909 68.588C240.909 65.996 241.517 63.708 242.733 61.724C243.981 59.708 245.661 58.14 247.773 57.02C249.917 55.868 252.365 55.292 255.117 55.292C257.837 55.292 260.269 55.868 262.413 57.02C264.557 58.14 266.237 59.692 267.453 61.676C268.669 63.66 269.277 65.964 269.277 68.588C269.277 71.148 268.669 73.436 267.453 75.452C266.237 77.436 264.557 79.004 262.413 80.156C260.269 81.308 257.837 81.884 255.117 81.884ZM255.117 75.74C256.365 75.74 257.485 75.452 258.477 74.876C259.469 74.3 260.253 73.484 260.829 72.428C261.405 71.34 261.693 70.06 261.693 68.588C261.693 67.084 261.405 65.804 260.829 64.748C260.253 63.692 259.469 62.876 258.477 62.3C257.485 61.724 256.365 61.436 255.117 61.436C253.869 61.436 252.749 61.724 251.757 62.3C250.765 62.876 249.965 63.692 249.357 64.748C248.781 65.804 248.493 67.084 248.493 68.588C248.493 70.06 248.781 71.34 249.357 72.428C249.965 73.484 250.765 74.3 251.757 74.876C252.749 75.452 253.869 75.74 255.117 75.74ZM289.979 55.292C292.027 55.292 293.851 55.708 295.451 56.54C297.083 57.34 298.363 58.588 299.291 60.284C300.219 61.948 300.683 64.092 300.683 66.716V81.5H293.195V67.868C293.195 65.788 292.731 64.252 291.803 63.26C290.907 62.268 289.627 61.772 287.963 61.772C286.779 61.772 285.707 62.028 284.747 62.54C283.819 63.02 283.083 63.772 282.539 64.796C282.027 65.82 281.771 67.132 281.771 68.732V81.5H274.283V55.676H281.435V62.828L280.091 60.668C281.019 58.94 282.347 57.612 284.075 56.684C285.803 55.756 287.771 55.292 289.979 55.292ZM326.68 81.788C324.792 81.788 323.016 81.372 321.352 80.54C319.72 79.708 318.408 78.524 317.416 76.988L319.48 74.588C320.408 75.932 321.48 76.956 322.696 77.66C323.912 78.364 325.256 78.716 326.728 78.716C330.888 78.716 332.968 76.252 332.968 71.324V50.972H320.68V47.9H336.472V71.18C336.472 74.732 335.64 77.388 333.976 79.148C332.344 80.908 329.912 81.788 326.68 81.788ZM357.111 81.74C354.487 81.74 352.183 81.196 350.199 80.108C348.215 78.988 346.663 77.468 345.543 75.548C344.423 73.596 343.863 71.372 343.863 68.876C343.863 66.38 344.391 64.172 345.447 62.252C346.535 60.332 348.007 58.828 349.863 57.74C351.751 56.62 353.863 56.06 356.199 56.06C358.567 56.06 360.663 56.604 362.487 57.692C364.343 58.748 365.799 60.252 366.855 62.204C367.911 64.124 368.439 66.348 368.439 68.876C368.439 69.036 368.423 69.212 368.391 69.404C368.391 69.564 368.391 69.74 368.391 69.932H346.455V67.388H366.567L365.223 68.396C365.223 66.572 364.823 64.956 364.023 63.548C363.255 62.108 362.199 60.988 360.855 60.188C359.511 59.388 357.959 58.988 356.199 58.988C354.471 58.988 352.919 59.388 351.543 60.188C350.167 60.988 349.095 62.108 348.327 63.548C347.559 64.988 347.175 66.636 347.175 68.492V69.02C347.175 70.94 347.591 72.636 348.423 74.108C349.287 75.548 350.471 76.684 351.975 77.516C353.511 78.316 355.255 78.716 357.207 78.716C358.743 78.716 360.167 78.444 361.479 77.9C362.823 77.356 363.975 76.524 364.935 75.404L366.855 77.612C365.735 78.956 364.327 79.98 362.631 80.684C360.967 81.388 359.127 81.74 357.111 81.74ZM382.143 81.74C380.063 81.74 378.095 81.452 376.239 80.876C374.383 80.268 372.927 79.516 371.871 78.62L373.407 75.932C374.431 76.7 375.743 77.372 377.343 77.948C378.943 78.492 380.623 78.764 382.383 78.764C384.783 78.764 386.511 78.396 387.567 77.66C388.623 76.892 389.151 75.884 389.151 74.636C389.151 73.708 388.847 72.988 388.239 72.476C387.663 71.932 386.895 71.532 385.935 71.276C384.975 70.988 383.903 70.748 382.719 70.556C381.535 70.364 380.351 70.14 379.167 69.884C378.015 69.628 376.959 69.26 375.999 68.78C375.039 68.268 374.255 67.58 373.647 66.716C373.071 65.852 372.783 64.7 372.783 63.26C372.783 61.884 373.167 60.652 373.935 59.564C374.703 58.476 375.823 57.628 377.295 57.02C378.799 56.38 380.623 56.06 382.767 56.06C384.399 56.06 386.031 56.284 387.663 56.732C389.295 57.148 390.639 57.708 391.695 58.412L390.207 61.148C389.087 60.38 387.887 59.836 386.607 59.516C385.327 59.164 384.047 58.988 382.767 58.988C380.495 58.988 378.815 59.388 377.727 60.188C376.671 60.956 376.143 61.948 376.143 63.164C376.143 64.124 376.431 64.876 377.007 65.42C377.615 65.964 378.399 66.396 379.359 66.716C380.351 67.004 381.423 67.244 382.575 67.436C383.759 67.628 384.927 67.868 386.079 68.156C387.263 68.412 388.335 68.78 389.295 69.26C390.287 69.708 391.071 70.364 391.647 71.228C392.255 72.06 392.559 73.164 392.559 74.54C392.559 76.012 392.143 77.292 391.311 78.38C390.511 79.436 389.327 80.268 387.759 80.876C386.223 81.452 384.351 81.74 382.143 81.74ZM409.229 81.74C407.085 81.74 405.213 81.34 403.613 80.54C402.013 79.74 400.765 78.54 399.869 76.94C399.005 75.34 398.573 73.34 398.573 70.94V56.3H401.981V70.556C401.981 73.244 402.637 75.276 403.949 76.652C405.293 77.996 407.165 78.668 409.565 78.668C411.325 78.668 412.845 78.316 414.125 77.612C415.437 76.876 416.429 75.82 417.101 74.444C417.805 73.068 418.157 71.42 418.157 69.5V56.3H421.565V81.5H418.301V74.588L418.829 75.836C418.029 77.692 416.781 79.148 415.085 80.204C413.421 81.228 411.469 81.74 409.229 81.74ZM437.831 81.74C435.751 81.74 433.783 81.452 431.927 80.876C430.071 80.268 428.615 79.516 427.559 78.62L429.095 75.932C430.119 76.7 431.431 77.372 433.031 77.948C434.631 78.492 436.311 78.764 438.071 78.764C440.471 78.764 442.199 78.396 443.255 77.66C444.311 76.892 444.839 75.884 444.839 74.636C444.839 73.708 444.535 72.988 443.927 72.476C443.351 71.932 442.583 71.532 441.623 71.276C440.663 70.988 439.591 70.748 438.407 70.556C437.223 70.364 436.039 70.14 434.855 69.884C433.703 69.628 432.647 69.26 431.687 68.78C430.727 68.268 429.943 67.58 429.335 66.716C428.759 65.852 428.471 64.7 428.471 63.26C428.471 61.884 428.855 60.652 429.623 59.564C430.391 58.476 431.511 57.628 432.983 57.02C434.487 56.38 436.311 56.06 438.455 56.06C440.087 56.06 441.719 56.284 443.351 56.732C444.983 57.148 446.327 57.708 447.383 58.412L445.895 61.148C444.775 60.38 443.575 59.836 442.295 59.516C441.015 59.164 439.735 58.988 438.455 58.988C436.183 58.988 434.503 59.388 433.415 60.188C432.359 60.956 431.831 61.948 431.831 63.164C431.831 64.124 432.119 64.876 432.695 65.42C433.303 65.964 434.087 66.396 435.047 66.716C436.039 67.004 437.111 67.244 438.263 67.436C439.447 67.628 440.615 67.868 441.767 68.156C442.951 68.412 444.023 68.78 444.983 69.26C445.975 69.708 446.759 70.364 447.335 71.228C447.943 72.06 448.247 73.164 448.247 74.54C448.247 76.012 447.831 77.292 446.999 78.38C446.199 79.436 445.015 80.268 443.447 80.876C441.911 81.452 440.039 81.74 437.831 81.74Z" fill="#28292C"/>
</svg>
